<?xml version="1.0" encoding="utf-8" ?>
<svg xmlns="http://www.w3.org/2000/svg" width="2200" height="1400" viewBox="0 0 2200 1400">
<defs>
<style>
  .bg { fill: #ffffff; }
  .title { font-family: sans-serif; font-size: 40px; font-weight: bold; fill: #475569; }
  .hall { fill: none; stroke: #334155; stroke-width: 3; }
  .hall-label { font-family: sans-serif; font-size: 30px; font-weight: bold; fill: #475569; text-anchor: middle; }
  .island-guide { fill: #f1f5f9; stroke: #94a3b8; stroke-width: 1.5; stroke-dasharray: 6,4; }
  .island-label { font-family: sans-serif; font-size: 24px; font-weight: bold; fill: #475569; text-anchor: middle; dominant-baseline: central; }
  .number-hint { font-family: sans-serif; font-size: 12px; fill: #94a3b8; text-anchor: middle; dominant-baseline: central; }
  .note { font-family: sans-serif; font-size: 18px; fill: #94a3b8; }
</style>
</defs>
<rect class="bg" x="0" y="0" width="2200" height="1400" />
<text class="title" x="30" y="55">西2 ホール 下地テンプレート</text>
<text class="note" x="30" y="90">点線の長方形が島の位置ガイドです。Inkscapeでこの上に島の外形を描いてください。</text>
<rect class="island-guide" x="40.0" y="120.0" width="113.4" height="1220.0" rx="4" />
<text class="island-label" x="96.7" y="148.0">あ</text>
<text class="number-hint" x="96.7" y="175.0">1, 2, 3, 4, 5, 6, 7, 8...</text>
<rect class="island-guide" x="165.4" y="120.0" width="113.4" height="1220.0" rx="4" />
<text class="island-label" x="222.1" y="148.0">い</text>
<text class="number-hint" x="222.1" y="175.0">1, 2, 3, 4, 5, 6, 7, 8...</text>
<rect class="island-guide" x="290.8" y="120.0" width="113.4" height="1220.0" rx="4" />
<text class="island-label" x="347.5" y="148.0">う</text>
<text class="number-hint" x="347.5" y="175.0">1, 2, 3, 4, 5, 6, 7, 8...</text>
<rect class="island-guide" x="416.2" y="120.0" width="113.4" height="1220.0" rx="4" />
<text class="island-label" x="472.9" y="148.0">え</text>
<text class="number-hint" x="472.9" y="175.0">1, 2, 3, 4, 5, 6, 7, 8...</text>
<rect class="island-guide" x="541.6" y="120.0" width="113.4" height="1220.0" rx="4" />
<text class="island-label" x="598.4" y="148.0">お</text>
<text class="number-hint" x="598.4" y="175.0">1, 2, 3, 4, 5, 6, 7, 8...</text>
<rect class="island-guide" x="667.1" y="120.0" width="113.4" height="1220.0" rx="4" />
<text class="island-label" x="723.8" y="148.0">か</text>
<text class="number-hint" x="723.8" y="175.0">1, 2, 3, 4, 5, 6, 7, 8...</text>
<rect class="island-guide" x="792.5" y="120.0" width="113.4" height="1220.0" rx="4" />
<text class="island-label" x="849.2" y="148.0">き</text>
<text class="number-hint" x="849.2" y="175.0">1, 2, 3, 4, 5, 6, 7, 8...</text>
<rect class="island-guide" x="917.9" y="120.0" width="113.4" height="1220.0" rx="4" />
<text class="island-label" x="974.6" y="148.0">く</text>
<text class="number-hint" x="974.6" y="175.0">1, 2, 3, 4, 5, 6, 7, 8...</text>
<rect class="island-guide" x="1043.3" y="120.0" width="113.4" height="1220.0" rx="4" />
<text class="island-label" x="1100.0" y="148.0">け</text>
<text class="number-hint" x="1100.0" y="175.0">1, 2, 3, 4, 5, 6, 7, 8...</text>
<rect class="island-guide" x="1168.7" y="120.0" width="113.4" height="1220.0" rx="4" />
<text class="island-label" x="1225.4" y="148.0">こ</text>
<text class="number-hint" x="1225.4" y="175.0">1, 2, 3, 4, 5, 6, 7, 8...</text>
<rect class="island-guide" x="1294.1" y="120.0" width="113.4" height="1220.0" rx="4" />
<text class="island-label" x="1350.8" y="148.0">さ</text>
<text class="number-hint" x="1350.8" y="175.0">1, 2, 3, 4, 5, 6, 7, 8...</text>
<rect class="island-guide" x="1419.5" y="120.0" width="113.4" height="1220.0" rx="4" />
<text class="island-label" x="1476.2" y="148.0">し</text>
<text class="number-hint" x="1476.2" y="175.0">1, 2, 3, 4, 5, 6, 7, 8...</text>
<rect class="island-guide" x="1544.9" y="120.0" width="113.4" height="1220.0" rx="4" />
<text class="island-label" x="1601.6" y="148.0">す</text>
<text class="number-hint" x="1601.6" y="175.0">1, 2, 3, 4, 5, 6, 7, 8...</text>
<rect class="island-guide" x="1670.4" y="120.0" width="113.4" height="1220.0" rx="4" />
<text class="island-label" x="1727.1" y="148.0">せ</text>
<text class="number-hint" x="1727.1" y="175.0">1, 2, 3, 4, 5, 6, 7, 8...</text>
<rect class="island-guide" x="1795.8" y="120.0" width="113.4" height="1220.0" rx="4" />
<text class="island-label" x="1852.5" y="148.0">そ</text>
<text class="number-hint" x="1852.5" y="175.0">1, 2, 3, 4, 5, 6, 7, 8...</text>
<rect class="island-guide" x="1921.2" y="120.0" width="113.4" height="1220.0" rx="4" />
<text class="island-label" x="1977.9" y="148.0">た</text>
<text class="number-hint" x="1977.9" y="175.0">1, 2, 3, 4, 5, 6, 7, 8...</text>
<rect class="island-guide" x="2046.6" y="120.0" width="113.4" height="1220.0" rx="4" />
<text class="island-label" x="2103.3" y="148.0">ち</text>
<text class="number-hint" x="2103.3" y="175.0">1, 2, 3, 4, 5, 6, 7, 8...</text>
</svg>